# xmcd CD database file
#
# Track frame offsets:
#	150
#	2693
#	13007
#	30793
#	48101
#	65611
#	77269
#	95904
#	114914
#	127856
#	145132
#	159314
#	168505
#	183681
#	195368
#
# Disc length: 2744 seconds
#
# Revision: 0
# Processed by: cddbd v1.5.2PL0 Copyright (c) Steve Scherf et al.
# Submitted via: CDex 1.70beta2
#
DISCID=ad0ab60f
DTITLE=Peter Alexander, Großes Orchester, Heinz Geese - Show
DYEAR=1969
DGENRE=Jazz
TTITLE0=Fanfare (Opening)
TTITLE1=Links Vom Broadway, Rechts Vom Broadway (There's No Business Like Show Business)
TTITLE2=Willkommen (Welcome)
TTITLE3=Schenk Mir Heut Ein Rendezvous (Tea For Two)
TTITLE4=Maria
TTITLE5=Die Frau Meiner Träume (The Girl That I Marry)
TTITLE6=Helly, Dolly
TTITLE7=Zu Zweit, Zu Weit (Tonight)
TTITLE8=Wenn Deine Schöne Lady Sich Verläuft (The Lady Is A Tramp)
TTITLE9=Hernando's Hideaway
TTITLE10=Die Melodie Von Amerika (America)
TTITLE11=Ich Habe Alles (I Got Rhythm)
TTITLE12=Eines Schönen Tages (Some Enchanted Evening)
TTITLE13=Supercalifragilistisch Expiallegorisch (Supercalifragilisticexpialidocious)
TTITLE14=In Der Straße Wohnst Du (On The Street Where You Live)
EXTD=YEAR: 1969
EXTT0=
EXTT1=
EXTT2=
EXTT3=
EXTT4=
EXTT5=
EXTT6=
EXTT7=
EXTT8=
EXTT9=
EXTT10=
EXTT11=
EXTT12=
EXTT13=
EXTT14=
PLAYORDER=
